# xmcd
#
# Track frame offsets:
#	150
#	18802
#	32932
#	50892
#	64850
#	82107
#	99780
#	119555
#	135947
#	154875
#	175367
#
# Disc length: 2531 seconds
#
# Revision: 0
# Processed by: cddbd v1.5.1PL0 Copyright (c) Steve Scherf et al.
# Submitted via: dBpowerAMP V4.0
#
DISCID=9109e10b
DTITLE=Jaimi Faulkner - Last Light
DYEAR=2004
DGENRE=Blues
TTITLE0=She'll Be Around
TTITLE1=Shut Her Down
TTITLE2=Hold On Babe
TTITLE3=Reference Tone
TTITLE4=Solid Ground
TTITLE5=Troubles Him So
TTITLE6=Anyone Around
TTITLE7=Drink My Wine
TTITLE8=King For A Day
TTITLE9=Houses Out The Rain
TTITLE10=All I Can
EXTD=
EXTT0=
EXTT1=
EXTT2=
EXTT3=
EXTT4=
EXTT5=
EXTT6=
EXTT7=
EXTT8=
EXTT9=
EXTT10=
PLAYORDER=
